HIERARCHY
ROOT hip
{
	OFFSET 0.000000 0.000000 0.000000
	CHANNELS 6 Xposition Yposition Zposition Zrotation Yrotation Xrotation 
	JOINT lhipjoint
	{
		OFFSET 0.000000 0.000000 0.000000
		CHANNELS 3 Zrotation Yrotation Xrotation
		JOINT lfemur
		{
			OFFSET 1.363060 -1.794630 0.839290
			CHANNELS 3 Zrotation Yrotation Xrotation
			JOINT ltibia
			{
				OFFSET 2.448110 -6.726130 0.000000
				CHANNELS 3 Zrotation Yrotation Xrotation
				JOINT lfoot
				{
					OFFSET 2.562200 -7.039590 0.000000
					CHANNELS 3 Zrotation Yrotation Xrotation
					JOINT ltoes
					{
						OFFSET 0.157640 -0.433110 2.322550
						CHANNELS 3 Zrotation Yrotation Xrotation
						End Site
						{
							OFFSET 0.000000 0.000000 0.000000
						}
					}
				}
			}
		}
	}
	JOINT rhipjoint
	{
		OFFSET 0.000000 0.000000 0.000000
		CHANNELS 3 Zrotation Yrotation Xrotation
		JOINT rfemur
		{
			OFFSET -1.305520 -1.794630 0.839290
			CHANNELS 3 Zrotation Yrotation Xrotation
			JOINT rtibia
			{
				OFFSET -2.542530 -6.985550 0.000000
				CHANNELS 3 Zrotation Yrotation Xrotation
				JOINT rfoot
				{
					OFFSET -2.568260 -7.056230 0.000000
					CHANNELS 3 Zrotation Yrotation Xrotation
					JOINT rtoes
					{
						OFFSET -0.164730 -0.452590 2.363150
						CHANNELS 3 Zrotation Yrotation Xrotation
						End Site
						{
							OFFSET 0.000000 0.000000 0.000000
						}
					}
				}
			}
		}
	}
	JOINT lowerback
	{
		OFFSET 0.000000 0.000000 0.000000
		CHANNELS 3 Zrotation Yrotation Xrotation
		JOINT upperback
		{
			OFFSET 0.028270 2.035590 -0.193380
			CHANNELS 3 Zrotation Yrotation Xrotation
			JOINT thorax
			{
				OFFSET 0.056720 2.048850 -0.042750
				CHANNELS 3 Zrotation Yrotation Xrotation
				JOINT lowerneck
				{
					OFFSET 0.000000 0.000000 0.000000
					CHANNELS 3 Zrotation Yrotation Xrotation
					JOINT upperneck
					{
						OFFSET -0.054170 1.746240 0.172020
						CHANNELS 3 Zrotation Yrotation Xrotation
						JOINT head
						{
							OFFSET 0.104070 1.761360 -0.123970
							CHANNELS 3 Zrotation Yrotation Xrotation
							End Site
							{
								OFFSET 0.000000 0.000000 0.000000
							}
						}
					}
				}
				JOINT lclavicle
				{
					OFFSET 0.000000 0.000000 0.000000
					CHANNELS 3 Zrotation Yrotation Xrotation
					JOINT lhumerus
					{
						OFFSET 3.362410 1.200890 -0.311210
						CHANNELS 3 Zrotation Yrotation Xrotation
						JOINT lradius
						{
							OFFSET 4.983000 -0.000000 -0.000000
							CHANNELS 3 Zrotation Yrotation Xrotation
							JOINT lwrist
							{
								OFFSET 3.483560 -0.000000 -0.000000
								CHANNELS 3 Zrotation Yrotation Xrotation
								JOINT lhand
								{
									OFFSET 0.000000 0.000000 0.000000
									CHANNELS 3 Zrotation Yrotation Xrotation
									JOINT lfingers
									{
										OFFSET 0.715260 -0.000000 -0.000000
										CHANNELS 3 Zrotation Yrotation Xrotation
										End Site
										{
											OFFSET 0.000000 0.000000 0.000000
										}
									}
								}
								JOINT lthumb
								{
									OFFSET 0.000000 0.000000 0.000000
									CHANNELS 3 Zrotation Yrotation Xrotation
									End Site
									{
										OFFSET 0.000000 0.000000 0.000000
									}
								}
							}
						}
					}
				}
				JOINT rclavicle
				{
					OFFSET 0.000000 0.000000 0.000000
					CHANNELS 3 Zrotation Yrotation Xrotation
					JOINT rhumerus
					{
						OFFSET -3.136600 1.374050 -0.404650
						CHANNELS 3 Zrotation Yrotation Xrotation
						JOINT rradius
						{
							OFFSET -5.241900 -0.000000 -0.000000
							CHANNELS 3 Zrotation Yrotation Xrotation
							JOINT rwrist
							{
								OFFSET -3.444170 -0.000000 -0.000000
								CHANNELS 3 Zrotation Yrotation Xrotation
								JOINT rhand
								{
									OFFSET 0.000000 0.000000 0.000000
									CHANNELS 3 Zrotation Yrotation Xrotation
									JOINT rfingers
									{
										OFFSET -0.622530 -0.000000 -0.000000
										CHANNELS 3 Zrotation Yrotation Xrotation
										End Site
										{
											OFFSET 0.000000 0.000000 0.000000
										}
									}
								}
								JOINT rthumb
								{
									OFFSET 0.000000 0.000000 0.000000
									CHANNELS 3 Zrotation Yrotation Xrotation
									End Site
									{
										OFFSET 0.000000 0.000000 0.000000
									}
								}
							}
						}
					}
				}
			}
		}
	}
}
MOTION
Frames: 11
Frame Time: 0.008333
12.679210 15.394028 -2.421136 -173.610853 2.260680 -174.445664 4.415069 2.883378 -0.200833 15.301817 -3.413004 -13.351937 1.860763 9.433906 26.493668 2.203092 -5.911279 5.145780 4.329500 -12.586500 -37.839500 -4.269029 -3.822381 1.325185 3.523100 3.195861 -33.141096 -8.838393 -16.683658 54.360989 -0.554253 12.260536 -6.328756 -4.405900 12.681800 -38.188800 4.603225 -0.774705 12.947011 -0.143837 -0.290913 -2.998815 -12.080931 0.642481 -0.999110 6.343495 -19.956167 1.028929 7.688701 -25.922092 3.886448 2.236700 -12.647900 -7.856500 -2.465540 -7.542209 3.197737 -48.714319 -19.538959 70.220304 138.792408 -39.145508 -99.184313 0.873659 -0.039157 -15.080770 21.917681 -21.834671 -8.107100 -7.125000 0.000000 0.000000 -4.836800 6.965000 4.230000 7.630126 9.567434 7.743500 5.310629 -21.471915 18.102286 -42.348192 45.551148 -21.508025 -0.862805 -0.450371 -8.788752 -37.618004 20.412802 -15.005500 7.125000 0.000000 0.000000 -5.012900 -4.391800 -4.632500 
12.758531 15.382904 -2.391439 -173.823307 1.994953 -174.844677 4.405062 2.881144 -0.223345 15.017901 -2.026517 -13.661824 1.984294 9.734963 27.492053 2.506188 -7.478411 5.878467 4.084200 -12.271700 -36.699900 -4.365463 -3.821829 1.274084 3.354723 4.026516 -32.363065 -8.637063 -16.479705 53.527413 -0.558508 11.906143 -6.551454 -4.561100 12.871800 -38.890300 5.857800 -0.933738 13.696644 -0.075550 -0.350325 -2.974251 -12.675498 0.642609 -1.165610 6.371878 -20.142895 1.153851 7.339852 -26.126065 3.633331 2.146700 -12.700800 -8.119700 -2.470646 -7.479366 3.178536 -49.273322 -19.401045 70.610735 139.186785 -38.888503 -99.529072 0.846981 -0.024343 -15.972314 21.906215 -21.836659 -8.115600 -7.125000 0.000000 0.000000 -4.828200 6.955400 4.223400 7.745744 9.623871 7.762179 1.431007 -18.226457 16.438110 -30.304186 37.620168 -12.864104 -0.569829 -0.449415 -12.116792 -32.817075 17.179787 -10.820500 7.125000 0.000000 0.000000 -2.708700 -9.351700 -2.235100 
12.840658 15.368200 -2.361161 -174.054407 1.754509 -175.311774 4.380872 2.878116 -0.247540 14.715582 -0.507631 -14.072952 2.178176 10.161170 28.884794 2.830394 -9.371798 6.451008 4.070200 -12.253300 -36.634000 -4.506558 -3.819395 1.199760 3.229643 5.081621 -31.356155 -8.465369 -16.274750 52.764151 -0.570737 11.629112 -6.932805 -4.478100 12.770800 -38.516600 7.057277 -1.109809 14.498708 0.036447 -0.408076 -2.944851 -13.181652 0.648739 -1.333726 6.387845 -20.269191 1.112803 7.013680 -26.322857 3.600746 1.981300 -12.766900 -8.287900 -2.471445 -7.481740 3.166855 -49.554939 -19.428336 70.994588 139.625156 -38.539744 -99.905580 0.831122 -0.016626 -16.771624 22.006528 -21.626318 -8.088900 -7.125000 0.000000 0.000000 -4.735800 7.159800 4.123100 7.933238 9.701056 7.653862 -2.931490 -14.522727 14.959115 -19.901062 28.064671 -6.669347 -0.163157 -0.325356 -14.881675 -28.076015 13.482790 -7.190100 7.125000 0.000000 0.000000 -0.280900 -14.431900 -0.202100 
12.923848 15.340631 -2.328272 -174.299757 1.543662 -175.849845 4.343086 2.873573 -0.272246 14.448847 0.978029 -14.463938 2.448248 10.691468 30.628170 3.146196 -11.542698 6.857045 4.129300 -12.330500 -36.911400 -4.685635 -3.809210 1.092970 3.163506 6.290207 -30.083752 -8.335562 -16.085935 52.129790 -0.597403 11.589843 -7.603781 -4.277800 12.521200 -37.601500 8.225354 -1.282550 15.346460 0.182462 -0.426141 -2.906685 -13.708393 0.677863 -1.495441 6.603472 -20.406764 0.976414 6.699828 -26.549566 3.717995 1.732700 -12.864500 -8.473700 -2.407887 -7.521065 3.175543 -49.806948 -19.637070 71.558031 139.912730 -38.237871 -100.111307 0.820383 0.000879 -17.316375 22.070101 -21.220689 -7.977500 -7.125000 0.000000 0.000000 -4.657100 7.562700 4.017300 8.130288 9.821399 7.378104 -7.201302 -11.954714 14.911664 -12.449465 19.621566 -3.211732 0.376059 0.002168 -18.797806 -23.813776 8.598618 -3.886200 7.125000 0.000000 0.000000 1.960900 -20.454600 1.152700 
13.007910 15.299810 -2.294222 -174.561261 1.357790 -176.433415 4.305486 2.876040 -0.293059 14.217573 2.340987 -14.809029 2.792163 11.293072 32.635453 3.407191 -13.768210 7.157372 4.211500 -12.436600 -37.294700 -4.870646 -3.783522 0.965318 3.161830 7.528244 -28.663047 -8.258707 -15.931975 51.681986 -0.657837 11.684587 -8.819963 -4.282600 12.527200 -37.623600 9.230992 -1.501622 16.174245 0.328387 -0.487178 -2.870234 -14.084982 0.662892 -1.654744 6.904875 -20.517269 0.826248 6.345508 -26.729164 3.867385 1.441000 -12.941700 -8.632700 -2.233857 -7.520042 3.206103 -49.965087 -19.842562 72.093634 140.145187 -37.968864 -100.265586 0.811510 0.016607 -17.632893 22.168826 -20.724217 -7.845400 -7.125000 0.000000 0.000000 -4.550500 8.055400 3.880500 8.092928 9.899638 6.990548 -11.772343 -12.343702 27.845737 -9.724704 16.182121 -2.161641 0.805584 0.997079 -35.747040 -22.274147 1.698453 -0.576400 7.125000 0.000000 0.000000 2.377600 -28.531800 0.953900 
13.093132 15.257828 -2.261913 -174.806580 1.158550 -177.004857 4.280075 2.865537 -0.324656 14.032081 3.547993 -15.091713 3.194750 11.913359 34.781769 3.596874 -15.942821 7.471842 4.275300 -12.518000 -37.590100 -5.041339 -3.777022 0.866504 3.249612 8.786404 -27.329447 -8.247022 -15.840016 51.485628 -0.756998 11.682903 -10.440835 -4.459000 12.747400 -38.429900 10.115814 -1.656712 16.908812 0.425310 -0.489524 -2.834116 -14.363708 0.653256 -2.031153 7.080489 -20.615412 0.902899 5.963940 -26.898214 4.026816 1.217400 -13.002400 -8.610700 -1.922341 -7.702576 3.440996 -50.224748 -20.024131 72.721130 140.289208 -37.824959 -100.336776 0.792630 0.034980 -17.779925 22.199420 -20.209319 -7.683300 -7.125000 0.000000 0.000000 -4.482400 8.570100 3.776300 7.513464 10.197502 6.007157 -19.673946 -13.480779 67.637348 -11.342851 19.189125 -3.121680 -0.269665 2.714333 -80.008103 -27.377477 -2.590159 1.923500 7.125000 0.000000 0.000000 -2.782900 -33.818500 -0.763900 
13.177386 15.218941 -2.232893 -175.023157 0.969111 -177.561284 4.260216 2.851991 -0.360863 13.906999 4.602651 -15.273995 3.635336 12.524505 36.968675 3.711963 -17.991319 7.871598 4.317000 -12.570700 -37.781900 -5.202066 -3.778451 0.787628 3.446874 9.999849 -26.137514 -8.307751 -15.813428 51.569944 -0.890399 11.471426 -12.282628 -4.722200 13.064000 -39.608400 10.718856 -1.773093 17.562983 0.497110 -0.476257 -2.787687 -14.166471 0.683075 -2.301710 7.225520 -20.687158 0.888451 5.556936 -27.013012 4.160775 0.999400 -13.035600 -8.583200 -1.681863 -7.984227 3.656548 -50.453957 -20.238220 73.323357 140.355955 -37.747896 -100.343963 0.773456 0.051584 -17.758426 22.242579 -19.704253 -7.528400 -7.125000 0.000000 0.000000 -4.408000 9.072400 3.668900 7.168746 10.630670 5.234988 -24.595394 -11.874603 91.139990 -12.379496 21.745604 -4.047959 -1.554834 2.666347 -108.942640 -30.236453 -2.258212 1.880700 7.125000 0.000000 0.000000 -5.435200 -33.374600 -1.554900 
13.260867 15.181505 -2.208806 -175.257539 0.845011 -178.074603 4.248036 2.859208 -0.389721 13.776428 5.549559 -15.344473 4.080288 13.098721 39.086615 3.755197 -19.851917 8.522892 4.201000 -12.423200 -37.246100 -5.334064 -3.764756 0.726650 3.642185 11.164089 -25.169778 -8.438314 -15.850268 51.942155 -1.034515 11.165308 -14.033029 -4.892400 13.261600 -40.355700 11.251862 -1.949595 18.120635 0.559574 -0.523498 -2.751793 -13.819437 0.685155 -2.353256 7.238773 -20.758409 0.748107 5.205408 -27.117500 4.239919 0.831800 -13.065200 -8.552700 -1.539680 -8.046516 3.695665 -50.687803 -20.505467 73.970104 140.314007 -37.734859 -100.253777 0.755414 0.063830 -17.621744 22.201959 -19.366483 -7.400900 -7.125000 0.000000 0.000000 -4.401100 9.414200 3.633000 7.074804 10.779283 5.039407 -26.642252 -11.498156 96.673921 -12.972740 23.142142 -4.593446 -1.929540 2.310559 -119.918235 -31.594631 -2.152256 1.844300 7.125000 0.000000 0.000000 -6.481200 -33.182600 -1.887400 
13.343380 15.142618 -2.188202 -175.476095 0.749593 -178.464015 4.235779 2.871799 -0.415093 13.674336 6.403507 -15.444699 4.510859 13.632618 41.095819 3.735224 -21.455771 9.526860 3.883000 -12.003000 -35.742800 -5.447558 -3.754856 0.694909 3.850113 12.218196 -24.530240 -8.622372 -15.938816 52.539837 -1.172251 10.693437 -15.573917 -5.058700 13.449600 -41.075700 11.763793 -2.159059 18.485786 0.628774 -0.622965 -2.721601 -13.412395 0.655063 -2.304513 7.137706 -20.810611 0.682338 4.920200 -27.196251 4.210478 0.729500 -13.071700 -8.594800 -1.439156 -8.012823 3.685508 -50.916408 -20.744519 74.543518 140.233362 -37.748828 -100.127935 0.742167 0.077419 -17.405725 22.173775 -19.108282 -7.305900 -7.125000 0.000000 0.000000 -4.396300 9.668900 3.606400 7.076859 10.793338 5.039802 -27.571247 -11.916295 94.255042 -13.351596 23.755627 -4.817238 -1.956472 2.167225 -122.485316 -32.919780 -1.583178 1.511900 7.125000 0.000000 0.000000 -7.443400 -32.504200 -2.294300 
13.421734 15.105473 -2.167985 -175.694439 0.740388 -178.764994 4.221000 2.887002 -0.440772 13.566322 7.240649 -15.525092 4.912692 14.112941 42.962859 3.668487 -22.780995 10.959295 3.353800 -11.246900 -33.117100 -5.545720 -3.754561 0.693693 4.022746 13.219372 -24.181745 -8.839809 -16.062274 53.287099 -1.289309 10.229657 -16.809730 -5.122900 13.520900 -41.351000 12.264994 -2.375184 18.751697 0.700274 -0.739110 -2.695504 -13.044410 0.612658 -2.242212 7.006434 -20.877633 0.743348 4.652316 -27.284402 4.093695 0.665200 -13.068400 -8.737000 -1.360245 -7.942968 3.663977 -51.187055 -20.949096 75.048978 140.081693 -37.808947 -99.935990 0.734365 0.095891 -17.214843 22.139104 -19.013914 -7.267800 -7.125000 0.000000 0.000000 -4.412800 9.748100 3.612900 7.138464 10.765482 5.108448 -27.656288 -12.550404 87.392097 -13.573453 23.732872 -4.771721 -1.812523 2.231927 -119.622731 -33.885998 -0.326256 0.648700 7.125000 0.000000 0.000000 -8.073100 -31.005500 -2.785400 
13.495639 15.074325 -2.147574 -175.933732 0.852236 -178.919088 4.202234 2.909913 -0.467709 13.386274 8.094729 -15.643569 5.285391 14.543791 44.671892 3.589581 -23.710792 12.524976 2.785400 -10.339300 -30.082600 -5.623515 -3.767218 0.732119 4.096303 14.175730 -24.203679 -9.066943 -16.200484 54.096129 -1.383180 9.810479 -17.764119 -5.162900 13.564900 -41.521800 12.737564 -2.585165 18.896809 0.774232 -0.865585 -2.678622 -12.704835 0.556988 -2.155734 6.803117 -20.942639 0.915165 4.444537 -27.375003 3.857175 0.657600 -13.050600 -8.982600 -1.317758 -7.817062 3.609166 -51.522842 -21.124733 75.412117 139.880374 -37.892111 -99.704877 0.729331 0.120218 -16.960966 22.122085 -18.981271 -7.259800 -7.125000 0.000000 0.000000 -4.425500 9.752800 3.623000 7.293538 10.656746 5.318040 -26.209252 -13.548947 73.187463 -13.558859 22.865942 -4.405787 -1.372098 2.455770 -108.044505 -33.651003 0.363436 0.208200 7.125000 0.000000 0.000000 -7.772000 -30.281600 -2.815700 
